<svg xmlns="http://www.w3.org/2000/svg" viewBox="0 0 760 300" width="760" height="300">
  <defs>
    <pattern id="pat" x="0" y="0" width="18" height="18" patternUnits="userSpaceOnUse">
      <path d="M0 9 Q4.5 0 9 9 Q13.5 18 18 9" fill="none" stroke="#E65100" stroke-width="0.2" opacity="0.2"/>
      <circle cx="9" cy="9" r="5" fill="none" stroke="#BF360C" stroke-width="0.1" opacity="0.12"/>
    </pattern>
    <linearGradient id="bg" x1="0" y1="0" x2="0" y2="1">
      <stop offset="0%" stop-color="#FFF3E0"/>
      <stop offset="50%" stop-color="#FFE0B2"/>
      <stop offset="100%" stop-color="#FFCC80"/>
    </linearGradient>
  </defs>

  <rect x="0" y="0" width="760" height="300" rx="8" fill="url(#bg)" stroke="#E65100" stroke-width="1.5"/>
  <rect x="5" y="5" width="750" height="290" rx="6" fill="none" stroke="#BF360C" stroke-width="0.4"/>
  <rect x="12" y="12" width="736" height="276" rx="3" fill="url(#pat)" opacity="0.5"/>

  <rect x="20" y="14" width="720" height="40" rx="2" fill="#E65100" opacity="0.06"/>
  <text x="380" y="36" text-anchor="middle" font-size="18" fill="#BF360C" font-family="serif" font-weight="bold" letter-spacing="8">CREDON-AUD</text>
  <text x="380" y="48" text-anchor="middle" font-size="6.5" fill="#E65100" font-family="serif" letter-spacing="3">RESERVE BANK OF CREDON AUSTRALIA</text>

  <rect x="35" y="75" width="140" height="170" rx="2" fill="rgba(255,255,255,0.4)" stroke="#E65100" stroke-width="0.6"/>
  <text x="105" y="160" text-anchor="middle" font-size="9" fill="#E65100" opacity="0.12" font-family="serif">PORTRAIT</text>

  <rect x="205" y="75" width="350" height="170" rx="2" fill="rgba(255,255,255,0.2)"/>
  <text x="380" y="110" text-anchor="middle" font-size="13" fill="#BF360C" font-family="serif">CREDON DOLLARS</text>
  <text x="380" y="140" text-anchor="middle" font-size="15" fill="#E65100" font-family="serif" font-weight="bold">ONE HUNDRED CREDON DOLLARS</text>
  <text x="380" y="175" text-anchor="middle" font-size="42" fill="#E65100" font-family="serif" font-weight="900">A$100</text>
  <text x="380" y="200" text-anchor="middle" font-size="7" fill="#E65100" font-family="serif" letter-spacing="3" opacity="0.4">★★★ DIVINELY UNDERWRITTEN ★★★</text>

  <circle cx="660" cy="160" r="48" fill="none" stroke="#E65100" stroke-width="0.6" opacity="0.12"/>
  <text x="660" y="165" text-anchor="middle" font-size="30" fill="#E65100" opacity="0.05">A$</text>

  <rect x="370" y="70" width="18" height="160" fill="#E65100" opacity="0.06"/>
  
  <text x="580" y="22" font-size="9" fill="#BF360C" font-family="monospace" opacity="0.55">HL 0001 AUD</text>
  <text x="580" y="285" font-size="9" fill="#BF360C" font-family="monospace" opacity="0.55">HL 0001 AUD</text>

  <rect x="20" y="62" width="48" height="26" rx="2" fill="#E65100" opacity="0.85"/>
  <text x="44" y="80" text-anchor="middle" font-size="11" fill="white" font-family="serif" font-weight="900">A$100</text>
  <rect x="692" y="62" width="48" height="26" rx="2" fill="#E65100" opacity="0.85"/>
  <text x="716" y="80" text-anchor="middle" font-size="11" fill="white" font-family="serif" font-weight="900">A$100</text>
  <rect x="692" y="212" width="48" height="26" rx="2" fill="#E65100" opacity="0.85"/>
  <text x="716" y="230" text-anchor="middle" font-size="11" fill="white" font-family="serif" font-weight="900">A$100</text>

  <circle cx="105" cy="160" r="38" fill="rgba(255,255,255,0.3)" stroke="#E65100" stroke-width="0.25" stroke-dasharray="2,3"/>
  <text x="105" y="163" text-anchor="middle" font-size="7" fill="#E65100" opacity="0.1" font-family="serif">WATERMARK</text>

  <rect x="40" y="268" width="680" height="4" fill="#E65100" opacity="0.05"/>
  <text x="380" y="265" text-anchor="middle" font-size="3.5" fill="#E65100" opacity="0.1" font-family="monospace">CREDON-AUD ★ 2026 ★ HEAVENSLIVE</text>

  <text x="380" y="290" text-anchor="middle" font-size="5.5" fill="#E65100" opacity="0.18" font-family="serif">THIS AUSTRALIAN NOTE IS LEGAL TENDER FOR ALL CREDON TRANSACTIONS</text>
</svg>