<svg xmlns="http://www.w3.org/2000/svg" viewBox="0 0 760 320" width="760" height="320">
  <defs>
    <pattern id="vp" x="0" y="0" width="16" height="16" patternUnits="userSpaceOnUse">
      <path d="M0 8 Q4 0 8 8 Q12 16 16 8" fill="none" stroke="#006064" stroke-width="0.15" opacity="0.3"/>
      <path d="M8 0 Q16 4 8 8 Q0 12 8 16" fill="none" stroke="#00838F" stroke-width="0.1" opacity="0.2"/>
    </pattern>
    <linearGradient id="vb" x1="0" y1="0" x2="0" y2="1">
      <stop offset="0%" stop-color="#d4f1f4"/>
      <stop offset="50%" stop-color="#b2ebf2"/>
      <stop offset="100%" stop-color="#80deea"/>
    </linearGradient>
    <linearGradient id="holo" x1="0" y1="0" x2="1" y2="0">
      <stop offset="0%" stop-color="gold"/>
      <stop offset="25%" stop-color="#C8A951"/>
      <stop offset="50%" stop-color="gold"/>
      <stop offset="75%" stop-color="#C8A951"/>
      <stop offset="100%" stop-color="gold"/>
    </linearGradient>
  </defs>

  <!-- FRONT -->
  <rect x="0" y="0" width="760" height="320" rx="8" fill="url(#vb)" stroke="#004D40" stroke-width="1.5"/>
  <rect x="4" y="4" width="752" height="312" rx="6" fill="none" stroke="#006064" stroke-width="0.5"/>
  <rect x="10" y="10" width="740" height="300" rx="3" fill="url(#vp)" opacity="0.6"/>

  <!-- TOP BAND -->
  <rect x="20" y="18" width="720" height="45" rx="2" fill="#006064" opacity="0.08"/>
  <text x="380" y="42" text-anchor="middle" font-size="20" fill="#004D40" font-family="serif" font-weight="bold" letter-spacing="10">CREDON-VND</text>
  <text x="380" y="55" text-anchor="middle" font-size="8" fill="#006064" font-family="serif" letter-spacing="3">NGÂN HÀNG CREDON VIỆT NAM</text>

  <!-- LEFT: Portrait frame -->
  <rect x="40" y="80" width="150" height="180" rx="2" fill="rgba(255,255,255,0.4)" stroke="#006064" stroke-width="0.8"/>
  <rect x="45" y="85" width="140" height="170" rx="1" fill="rgba(0,96,100,0.05)" stroke="#004D40" stroke-width="0.3"/>
  <text x="115" y="170" text-anchor="middle" font-size="11" fill="#004D40" opacity="0.2" font-family="serif">CHÂN DUNG</text>

  <!-- CENTER: Denomination -->
  <rect x="220" y="80" width="320" height="180" rx="2" fill="rgba(255,255,255,0.2)"/>
  
  <text x="380" y="130" text-anchor="middle" font-size="14" fill="#004D40" font-family="serif" font-weight="bold">NĂM TRĂM NGHÌN</text>
  <text x="380" y="155" text-anchor="middle" font-size="52" fill="#006064" font-family="serif" font-weight="900">500.000</text>
  <text x="380" y="175" text-anchor="middle" font-size="13" fill="#004D40" font-family="serif">ĐỒNG CREDON</text>
  
  <line x1="260" y1="190" x2="500" y2="190" stroke="#006064" stroke-width="0.3"/>
  
  <text x="380" y="210" text-anchor="middle" font-size="8" fill="#006064" font-family="serif" letter-spacing="4" opacity="0.6">★★★ DIVINELY UNDERWRITTEN ★★★</text>
  <text x="380" y="228" text-anchor="middle" font-size="7" fill="#004D40" opacity="0.4">HEAVENSLIVE • 2026 • SERIES A</text>

  <!-- RIGHT: Coat of arms / emblem -->
  <circle cx="660" cy="170" r="55" fill="none" stroke="#006064" stroke-width="0.8" opacity="0.15"/>
  <circle cx="660" cy="170" r="48" fill="none" stroke="#004D40" stroke-width="0.4" opacity="0.1"/>
  <text x="660" y="175" text-anchor="middle" font-size="28" fill="#004D40" opacity="0.08">₵</text>

  <!-- Serial numbers -->
  <text x="600" y="25" font-size="9" fill="#004D40" font-family="monospace" opacity="0.6">HL 500001 V</text>
  <text x="600" y="298" font-size="9" fill="#004D40" font-family="monospace" opacity="0.6">HL 500001 V</text>

  <!-- Security thread (metallic strip) -->
  <rect x="365" y="75" width="30" height="170" fill="url(#holo)" opacity="0.15"/>
  <text x="380" y="165" text-anchor="middle" font-size="6" fill="#C8A951" opacity="0.3" transform="rotate(90,380,165)">CREDON</text>

  <!-- Corner values -->
  <rect x="25" y="70" width="45" height="25" rx="2" fill="#006064" opacity="0.85"/>
  <text x="47" y="88" text-anchor="middle" font-size="12" fill="white" font-family="serif" font-weight="900">500K</text>
  
  <rect x="690" y="70" width="45" height="25" rx="2" fill="#006064" opacity="0.85"/>
  <text x="712" y="88" text-anchor="middle" font-size="12" fill="white" font-family="serif" font-weight="900">500K</text>

  <rect x="690" y="225" width="45" height="25" rx="2" fill="#006064" opacity="0.85"/>
  <text x="712" y="243" text-anchor="middle" font-size="12" fill="white" font-family="serif" font-weight="900">500K</text>

  <!-- Microprint -->
  <rect x="40" y="282" width="680" height="6" fill="#006064" opacity="0.06"/>
  <text x="380" y="280" text-anchor="middle" font-size="3.5" fill="#004D40" opacity="0.15" font-family="monospace">CREDON-VND ★ NĂM TRĂM NGHÌN ĐỒNG ★ 2026</text>

  <!-- Bottom legal -->
  <text x="380" y="305" text-anchor="middle" font-size="6" fill="#004D40" opacity="0.25" font-family="serif">TIỀN TỆ HỢP PHÁP CHO TẤT CẢ GIAO DỊCH CREDON TRÊN LÃNH THỔ VIỆT NAM VÀ QUỐC TẾ</text>

  <!-- Watermark area (transparent circle) -->
  <circle cx="115" cy="180" r="40" fill="rgba(255,255,255,0.35)" stroke="#006064" stroke-width="0.3" stroke-dasharray="2,4"/>
  <text x="115" y="185" text-anchor="middle" font-size="8" fill="#004D40" opacity="0.12" font-family="serif">HÌNH MỜ</text>
</svg>
