<svg xmlns="http://www.w3.org/2000/svg" viewBox="0 0 800 340" width="800" height="340">
  <defs>
    <pattern id="vndPat" x="0" y="0" width="25" height="25" patternUnits="userSpaceOnUse">
      <path d="M0 0 L25 25 M25 0 L0 25" stroke="#8B0000" stroke-width="0.4" opacity="0.08"/>
      <rect x="8" y="8" width="9" height="9" fill="none" stroke="#0055A4" stroke-width="0.3" opacity="0.06"/>
    </pattern>
    <linearGradient id="vndBg" x1="0" y1="0" x2="1" y2="1">
      <stop offset="0%" stop-color="#fff5f5"/>
      <stop offset="50%" stop-color="#ffe8e0"/>
      <stop offset="100%" stop-color="#ffded5"/>
    </linearGradient>
  </defs>

  <rect x="0" y="0" width="800" height="340" rx="8" fill="url(#vndBg)" stroke="#8B0000" stroke-width="2"/>
  <rect x="5" y="5" width="790" height="330" rx="6" fill="none" stroke="#660000" stroke-width="0.5"/>
  <rect x="12" y="12" width="776" height="316" rx="3" fill="url(#vndPat)" opacity="0.35"/>

  <!-- Star (yellow/gold) -->
  <g transform="translate(130,170)" opacity="0.15">
    <polygon points="0,-40 12,-12 40,-12 18,4 26,32 0,18 -26,32 -18,4 -40,-12 -12,-12" fill="#8B0000"/>
  </g>

  <!-- CENTER -->
  <text x="400" y="80" text-anchor="middle" font-size="26" fill="#8B0000" font-family="serif" font-weight="bold" letter-spacing="6">CREDON-VND</text>
  <line x1="160" y1="92" x2="640" y2="92" stroke="#8B0000" stroke-width="0.5"/>
  
  <text x="400" y="120" text-anchor="middle" font-size="14" fill="#0055A4" font-family="serif" font-style="italic">ĐỒNG CREDON VIỆT NAM</text>
  <text x="400" y="148" text-anchor="middle" font-size="15" fill="#8B0000" font-family="serif" font-weight="bold">NĂM TRĂM NGHÌN ĐỒNG</text>
  
  <text x="400" y="185" text-anchor="middle" font-size="38" fill="#8B0000" font-family="serif" font-weight="900">500.000 ₫</text>
  
  <text x="400" y="212" text-anchor="middle" font-size="9" fill="#8B0000" font-family="serif" letter-spacing="4" opacity="0.5">DIVINELY UNDERWRITTEN</text>
  <text x="400" y="228" text-anchor="middle" font-size="7" fill="#0055A4" opacity="0.4">HEAVENSLIVE • 2026 • HL000001V</text>

  <!-- Lotus motif -->
  <g transform="translate(680,170)" opacity="0.1">
    <ellipse cx="0" cy="0" rx="30" ry="45" fill="none" stroke="#8B0000" stroke-width="1.2"/>
    <path d="M-25,0 Q0,-35 25,0 Q0,15 -25,0" fill="none" stroke="#0055A4" stroke-width="0.5"/>
    <path d="M-20,10 Q0,-25 20,10 Q0,20 -20,10" fill="none" stroke="#8B0000" stroke-width="0.3"/>
  </g>

  <!-- Corner blocks -->
  <g>
    <rect x="30" y="20" width="60" height="40" rx="3" fill="#8B0000" opacity="0.9"/>
    <text x="60" y="38" text-anchor="middle" font-size="9" fill="white" font-family="serif">CREDON</text>
    <text x="60" y="52" text-anchor="middle" font-size="10" fill="rgba(255,255,255,0.8)" font-family="serif" font-weight="900">500K</text>
    
    <rect x="710" y="20" width="60" height="40" rx="3" fill="#8B0000" opacity="0.9"/>
    <text x="740" y="38" text-anchor="middle" font-size="9" fill="white" font-family="serif">CREDON</text>
    <text x="740" y="52" text-anchor="middle" font-size="10" fill="rgba(255,255,255,0.8)" font-family="serif" font-weight="900">500K</text>
  </g>

  <rect x="120" y="275" width="560" height="3" fill="#8B0000" opacity="0.12"/>
  <text x="400" y="290" text-anchor="middle" font-size="6" fill="#8B0000" opacity="0.25">NGÂN HÀNG CREDON VIỆT NAM ★ 2026</text>

  <text x="400" y="315" text-anchor="middle" font-size="7" fill="#8B0000" opacity="0.3">TỜ TIỀN NÀY CÓ GIÁ TRỊ CHO TẤT CẢ GIAO DỊCH CREDON • HEAVENSLIVE 2026</text>
</svg>
